<svg xmlns="http://www.w3.org/2000/svg" xmlns:xlink="http://www.w3.org/1999/xlink" width="32" height="32" viewBox="0 0 32 32">
  <defs>
    <linearGradient id="btc-c" x1="50%" x2="50%" y1="0%" y2="100%">
      <stop offset="0%" stop-color="#FFF" stop-opacity=".5"/>
      <stop offset="100%" stop-opacity=".5"/>
    </linearGradient>
    <circle id="btc-b" cx="16" cy="15" r="15"/>
    <filter id="btc-a" width="111.7%" height="111.7%" x="-5.8%" y="-4.2%" filterUnits="objectBoundingBox">
      <feOffset dy=".5" in="SourceAlpha" result="shadowOffsetOuter1"/>
      <feGaussianBlur in="shadowOffsetOuter1" result="shadowBlurOuter1" stdDeviation=".5"/>
      <feComposite in="shadowBlurOuter1" in2="SourceAlpha" operator="out" result="shadowBlurOuter1"/>
      <feColorMatrix in="shadowBlurOuter1" values="0 0 0 0 0 0 0 0 0 0 0 0 0 0 0 0 0 0 0.199473505 0"/>
    </filter>
    <path id="btc-e" d="M21.78 14.268c.855-1.274.394-2.99-.847-3.894l-.124-.09a2.21 2.21 0 0 0-.62-.283c.542-.821.487-1.947-.203-2.7a2.926 2.926 0 0 0-3.4-.518c-.125.066-.243.14-.354.223l.095-1.412c.016-.207-.12-.397-.325-.45-.206-.054-.42.056-.5.258L14.84 7.05a.458.458 0 0 0-.355.056l-1.94-5.383c-.06-.168-.216-.28-.39-.282-.175-.002-.332.106-.396.272l-1.93 5.095c-.088-.044-.186-.075-.29-.09L8.71 4.29c-.08-.202-.294-.312-.5-.258-.205.053-.341.243-.325.45l.095 1.4c-1.17.574-1.718 1.96-1.253 3.173.465 1.212 1.793 1.864 3.067 1.506l-.033.054c-1.158.574-1.703 1.953-1.245 3.16.458 1.208 1.777 1.86 3.047 1.51l-.014.029c-1.088.561-1.593 1.857-1.178 3.015.414 1.158 1.652 1.866 2.87 1.642l.533 1.982c.063.235.305.375.54.312.235-.063.375-.305.312-.54l-.533-1.982c1.107-.5 1.67-1.74 1.323-2.913-.347-1.174-1.5-1.922-2.706-1.76l.014-.029c1.09-.561 1.596-1.857 1.182-3.015-.415-1.158-1.652-1.866-2.87-1.642l.033-.054c1.168-.583 1.713-1.968 1.255-3.178-.458-1.21-1.778-1.86-3.047-1.505l-.095-1.4 1.095 2.22c.061.124.177.214.312.243.135.03.277-.005.38-.094l.3-.258 1.828-4.825 1.83 5.066c.044.121.138.217.258.262.12.045.254.033.366-.033l.33-.193-.095 1.412c-.016.207.12.397.325.45.206.054.42-.056.5-.258l.66-1.747c.088.044.186.075.29.09l.66 1.747c.063.166.216.277.39.282.175.005.332-.102.396-.267l.3-.791c1.17-.574 1.718-1.96 1.253-3.173-.465-1.212-1.793-1.864-3.067-1.506l.124.09c1.241.904 1.7 2.62.847 3.894-.854 1.276-2.478 1.744-3.813 1.095l-.124-.09c-1.241-.904-1.7-2.62-.847-3.894.854-1.276 2.478-1.744 3.813-1.095l.124.09c.139.101.265.214.38.338-.542.821-.487 1.947.203 2.7a2.926 2.926 0 0 0 3.4.518c.125-.066.243-.14.354-.223l-.3.791-1.095-2.22c-.061-.124-.177-.214-.312-.243-.135-.03-.277.005-.38.094l-.3.258-.66 1.747-.66-1.747c-.044-.121-.138-.217-.258-.262-.12-.045-.254-.033-.366.033l-.33.193.095-1.412.62.283c1.335.649 2.959.18 3.813-1.095zm-5.348 7.298c.516.375.618 1.1.227 1.616-.39.517-1.113.632-1.628.257-.516-.375-.618-1.1-.227-1.616.39-.517 1.113-.632 1.628-.257zm-.905-3.733c.516.375.618 1.1.227 1.616-.39.517-1.113.632-1.628.257-.516-.375-.618-1.1-.227-1.616.39-.517 1.113-.632 1.628-.257zm-.905-3.733c.516.375.618 1.1.227 1.616-.39.517-1.113.632-1.628.257-.516-.375-.618-1.1-.227-1.616.39-.517 1.113-.632 1.628-.257zm4.065-1.415c.39-.517 1.113-.632 1.628-.257.516.375.618 1.1.227 1.616-.39.517-1.113.632-1.628.257-.516-.375-.618-1.1-.227-1.616zm4.065-1.415c.39-.517 1.113-.632 1.628-.257.516.375.618 1.1.227 1.616-.39.517-1.113.632-1.628.257-.516-.375-.618-1.1-.227-1.616z"/>
    <filter id="btc-d" width="123.3%" height="119.7%" x="-11.7%" y="-7%" filterUnits="objectBoundingBox">
      <feOffset dy=".5" in="SourceAlpha" result="shadowOffsetOuter1"/>
      <feGaussianBlur in="shadowOffsetOuter1" result="shadowBlurOuter1" stdDeviation=".5"/>
      <feColorMatrix in="shadowBlurOuter1" values="0 0 0 0 0 0 0 0 0 0 0 0 0 0 0 0 0 0 0.204257246 0"/>
    </filter>
  </defs>
  <g fill="none" fill-rule="evenodd">
    <use fill="#000" filter="url(#btc-a)" xlink:href="#btc-b"/>
    <use fill="#F7931A" xlink:href="#btc-b"/>
    <use fill="url(#btc-c)" style="mix-blend-mode:soft-light" xlink:href="#btc-b"/>
    <circle cx="16" cy="15" r="14.5" stroke="#000" stroke-opacity=".097"/>
    <g fill-rule="nonzero">
      <use fill="#000" filter="url(#btc-d)" xlink:href="#btc-e"/>
      <use fill="#FFF" xlink:href="#btc-e"/>
    </g>
  </g>
</svg> 