<svg width="32" height="32" viewBox="0 0 32 32" fill="none" xmlns="http://www.w3.org/2000/svg">
  <circle cx="16" cy="16" r="16" fill="#F9A43F"/>
  <path d="M24 16C24 20.4183 20.4183 24 16 24C11.5817 24 8 20.4183 8 16C8 11.5817 11.5817 8 16 8C20.4183 8 24 11.5817 24 16Z" fill="#FFF1DE"/>
  <path d="M14.1818 10.5455C13.5636 10.5455 12.7273 10.7273 12 11.0909C12.2545 10.9091 13.0909 10.3636 14.7273 10C15.8182 9.81818 17.8182 10 18.7273 10.9091C18.7273 10.9091 17.9252 10.5455 16.5455 10.5455H14.1818Z" fill="#F9A43F"/>
  <path d="M21.0909 14.9091C21.0909 14.9091 21.6364 13.8182 21.6364 13.0909C21.6364 12.3636 21.2727 11.4545 20.3636 11.0909C20.9091 11.0909 22 11.4545 22 13.2727C22 14.5455 21.0909 15.6364 21.0909 15.6364C21.0909 15.6364 22 16.3636 22 17.2727C22 18.1818 21.2727 19.8182 19.6364 20.1818C20.3636 19.6364 20.9091 18.7273 20.9091 17.8182C20.9091 16.9091 20.1818 16 20.1818 16C20.1818 16 21.0909 16.1818 21.0909 14.9091Z" fill="#F9A43F"/>
  <path d="M10.1818 16.1818C10.1818 16.1818 9.27273 15.2727 9.27273 13.8182C9.27273 12.3636 10.1818 11.2727 11.2727 11.0909C10.1818 11.0909 8.54545 12 8.54545 14C8.54545 16 10.1818 17.0909 10.1818 17.0909C10.1818 17.0909 8.54545 17.6364 8.54545 19.4545C8.54545 21.2727 10.3636 22.3636 11.8182 22.1818C10.7273 21.8182 9.81818 21.0909 9.81818 19.2727C9.81818 17.6364 11.2727 17.6364 11.2727 17.6364L10.1818 16.1818Z" fill="#F9A43F"/>
  <path d="M17.8182 13.2727C16.3636 10.9091 13.4545 11.4545 12.9091 13.2727C12.3636 15.0909 13.2727 16.1818 12.7273 18.3636C15.6364 18.1818 14.5455 16.5455 15.6364 16.1818C16.7273 15.8182 19.2727 15.6364 17.8182 13.2727Z" fill="#F9A43F"/>
  <path d="M17.4545 20.7273C17.4545 20.9091 16.9091 21.4545 15.4545 21.2727C13.6364 21.0909 13.4545 20.1818 13.8182 19.6364C14.5455 18.5455 17.4545 19.4545 17.4545 20.7273Z" fill="#F9A43F"/>
</svg> 