<svg xmlns="http://www.w3.org/2000/svg" xmlns:xlink="http://www.w3.org/1999/xlink" width="32" height="32" viewBox="0 0 32 32">
  <defs>
    <linearGradient id="shib-c" x1="50%" x2="50%" y1="0%" y2="100%">
      <stop offset="0%" stop-color="#FFF" stop-opacity=".5"/>
      <stop offset="100%" stop-opacity=".5"/>
    </linearGradient>
    <circle id="shib-b" cx="16" cy="15" r="15"/>
    <filter id="shib-a" width="111.7%" height="111.7%" x="-5.8%" y="-4.2%" filterUnits="objectBoundingBox">
      <feOffset dy=".5" in="SourceAlpha" result="shadowOffsetOuter1"/>
      <feGaussianBlur in="shadowOffsetOuter1" result="shadowBlurOuter1" stdDeviation=".5"/>
      <feComposite in="shadowBlurOuter1" in2="SourceAlpha" operator="out" result="shadowBlurOuter1"/>
      <feColorMatrix in="shadowBlurOuter1" values="0 0 0 0 0 0 0 0 0 0 0 0 0 0 0 0 0 0 0.199473505 0"/>
    </filter>
  </defs>
  <g fill="none" fill-rule="evenodd">
    <use fill="#000" filter="url(#shib-a)" xlink:href="#shib-b"/>
    <use fill="#FF3B30" xlink:href="#shib-b"/>
    <use fill="url(#shib-c)" style="mix-blend-mode:soft-light" xlink:href="#shib-b"/>
    <circle cx="16" cy="15" r="14.5" stroke="#000" stroke-opacity=".097"/>
    <path fill="#FFF" d="M9.078 7.2c-.14 0-.281.004-.422.013C5.646 7.45 3 10.34 3 13.875c0 1.04.25 2.04.7 2.925.65 1.268 1.747 2.324 3.072 2.968a5.621 5.621 0 0 0 2.306.507c.14 0 .281-.004.422-.013 3.01-.237 5.656-3.127 5.656-6.662 0-1.04-.25-2.04-.7-2.925-.65-1.268-1.747-2.324-3.072-2.968A5.621 5.621 0 0 0 9.078 7.2zm13.844 0c-.14 0-.281.004-.422.013-3.01.237-5.656 3.127-5.656 6.662 0 1.04.25 2.04.7 2.925.65 1.268 1.747 2.324 3.072 2.968a5.621 5.621 0 0 0 2.306.507c.14 0 .281-.004.422-.013 3.01-.237 5.656-3.127 5.656-6.662 0-1.04-.25-2.04-.7-2.925-.65-1.268-1.747-2.324-3.072-2.968a5.621 5.621 0 0 0-2.306-.507zM9.078 8.7c.093 0 .187.003.281.009 2.007.158 3.766 2.08 3.766 4.441 0 .693-.167 1.36-.467 1.95-.433.845-1.165 1.55-2.048 1.978a3.747 3.747 0 0 1-1.532.338c-.094 0-.188-.003-.281-.009-2.007-.158-3.766-2.08-3.766-4.441 0-.693.167-1.36.467-1.95.433-.845 1.165-1.55 2.048-1.978A3.747 3.747 0 0 1 9.078 8.7zm13.844 0c.093 0 .187.003.281.009 2.007.158 3.766 2.08 3.766 4.441 0 .693-.167 1.36-.467 1.95-.433.845-1.165 1.55-2.048 1.978a3.747 3.747 0 0 1-1.532.338c-.094 0-.188-.003-.281-.009-2.007-.158-3.766-2.08-3.766-4.441 0-.693.167-1.36.467-1.95.433-.845 1.165-1.55 2.048-1.978A3.747 3.747 0 0 1 22.922 8.7zM16 14.625c-1.657 0-3 1.343-3 3s1.343 3 3 3 3-1.343 3-3-1.343-3-3-3zm0 1.5c.828 0 1.5.672 1.5 1.5s-.672 1.5-1.5 1.5-1.5-.672-1.5-1.5.672-1.5 1.5-1.5z"/>
  </g>
</svg> 