<svg width="32" height="32" viewBox="0 0 32 32" fill="none" xmlns="http://www.w3.org/2000/svg">
  <circle cx="16" cy="16" r="16" fill="#14F195"/>
  <path d="M9.90916 19.4619C10.0393 19.3176 10.2222 19.2357 10.4133 19.2357H24.7351C25.0455 19.2357 25.2005 19.6258 24.9695 19.8455L22.091 22.5387C21.9608 22.6829 21.7779 22.7649 21.5869 22.7649H7.26505C6.95466 22.7649 6.7996 22.3747 7.03065 22.1551L9.90916 19.4619Z" fill="#1E1E1E"/>
  <path d="M9.90916 9.46137C10.0442 9.31715 10.2271 9.23517 10.4133 9.23517H24.7351C25.0455 9.23517 25.2005 9.62532 24.9695 9.84497L22.091 12.5382C21.9608 12.6824 21.7779 12.7644 21.5869 12.7644H7.26505C6.95466 12.7644 6.7996 12.3742 7.03065 12.1546L9.90916 9.46137Z" fill="#1E1E1E"/>
  <path d="M22.091 14.4603C21.9608 14.3161 21.7779 14.2341 21.5869 14.2341H7.26505C6.95466 14.2341 6.7996 14.6243 7.03065 14.8439L9.90916 17.5371C10.0393 17.6813 10.2222 17.7633 10.4133 17.7633H24.7351C25.0455 17.7633 25.2005 17.3732 24.9695 17.1535L22.091 14.4603Z" fill="#1E1E1E"/>
</svg> 