<svg width="32" height="32" viewBox="0 0 32 32" fill="none" xmlns="http://www.w3.org/2000/svg">
  <circle cx="16" cy="16" r="16" fill="#2775CA"/>
  <path d="M16 6C10.48 6 6 10.48 6 16C6 21.52 10.48 26 16 26C21.52 26 26 21.52 26 16C26 10.48 21.52 6 16 6ZM16.88 20.7V22.55C16.88 22.83 16.66 23.05 16.38 23.05H15.62C15.34 23.05 15.12 22.83 15.12 22.55V20.72C13.76 20.56 12.66 20.12 11.88 19.4C11.64 19.18 11.62 18.8 11.84 18.56L12.4 17.96C12.62 17.72 12.96 17.7 13.2 17.92C13.76 18.42 14.48 18.74 15.36 18.88V15.08C13.46 14.56 12 13.62 12 11.72C12 9.98 13.36 8.74 15.12 8.44V6.58C15.12 6.3 15.34 6.08 15.62 6.08H16.38C16.66 6.08 16.88 6.3 16.88 6.58V8.44C17.98 8.58 18.94 8.96 19.64 9.58C19.88 9.8 19.9 10.18 19.68 10.42L19.14 11.04C18.92 11.28 18.58 11.3 18.34 11.1C17.86 10.7 17.28 10.44 16.64 10.34V13.9C18.54 14.4 20 15.32 20 17.26C20 19.16 18.56 20.42 16.88 20.7Z" fill="white"/>
  <path d="M15.36 10.24V13.16C14.7 12.92 14.24 12.48 14.24 11.82C14.24 11.14 14.7 10.68 15.36 10.24Z" fill="white"/>
  <path d="M16.64 19.08V15.9C17.38 16.16 17.84 16.62 17.84 17.32C17.84 18.04 17.38 18.52 16.64 19.08Z" fill="white"/>
</svg> 